<mxfile host="app.diagrams.net" modified="2023-10-23T05:47:03.905Z" agent="Mozilla/5.0 (Windows NT 10.0; Win64; x64) AppleWebKit/537.36 (KHTML, like Gecko) Chrome/118.0.0.0 Safari/537.36" version="22.0.6" etag="zRDymDR3tqfb1WY1_vHu" type="github">
  <diagram name="Page-1" id="uQY5dLseU4sA5uhP6Io7">
    <mxGraphModel>
      <root>
        <mxCell id="0" />
        <mxCell id="1" parent="0" />
      </root>
    </mxGraphModel>
  </diagram>
</mxfile>
